:SAMPLES-PER-SECOND 30
:FULLY-SPECIFIED
:DEGREES
401
root  -10.3696 35.8426 11.2549 -171.991 43.9181 -175.29
RightUpLeg  -7.17065 -12.5332 -16.096
RightLeg  32.9664 -5.05416 -3.76431
RightFoot  -19.5017 2.25914 32.7232
RightToes  2.32829e-010 0 -3.6325e-017
Spine  12.3245 1.34261 -10.8481
Spine1  16.7907 -6.59324 19.4403
HEad  -32.8688 44.0304 -37.2284
LeftShoulder1  0.0521954 3.31348 -18.1664
LeftArm  -20.9733 -21.8647 -35.4068
LeftForeArm  143.28 -70.9243 -148.275
LeftHand  -2.5776 -3.83873 31.9354
RightShoulder  1.79331 4.25294 16.4854
RightArm  -31.8857 -43.973 66.6963
RightForeArm  -60.1198 39.9533 11.7873
RightHand  -3.21407 5.56374 -33.4142
LeftUpLeg  -35.4222 -10.2581 23.4651
LeftLeg  36.7748 -4.57113 -3.20995
LeftFoot  -8.95365 0.539617 -22.8581
LeftToes  -5.54824e-011 -8.71001e-011 8.3852e-012
402
root  -9.86485 35.9395 11.1262 -172.862 27.6012 -178.587
RightUpLeg  -1.06887 -21.5081 -17.2817
RightLeg  32.7761 -9.94165 -7.06385
RightFoot  -18.5271 2.2228 36.3326
RightToes  2.32829e-010 0 -3.6325e-017
Spine  13.1206 2.94857 -8.33004
Spine1  14.2213 -3.12945 16.0704
HEad  -28.401 32.8734 -29.2308
LeftShoulder1  0.663586 1.05028 -20.707
LeftArm  -11.1738 -24.4866 -41.8951
LeftForeArm  143.599 -71.4051 -147.445
LeftHand  -2.81517 -4.45115 32.6688
RightShoulder  1.959 4.39373 18.294
RightArm  -32.6875 -43.4441 63.712
RightForeArm  -62.8911 35.4884 10.3344
RightHand  -3.37597 5.97104 -33.8136
LeftUpLeg  -40.3442 -13.4757 20.5747
LeftLeg  32.1215 -13.4731 -8.62059
LeftFoot  -5.65199 1.30921 -25.1238
LeftToes  -5.54824e-011 -8.71001e-011 8.3852e-012
403
root  -9.34491 36.1571 10.784 -172.495 10.9142 177.23
RightUpLeg  5.47696 -28.4475 -19.646
RightLeg  31.0005 -13.5819 -8.88161
RightFoot  -16.4919 1.71091 38.9858
RightToes  2.32829e-010 0 -3.6325e-017
Spine  14.1526 4.42011 -3.53248
Spine1  12.9396 1.60899 7.63282
HEad  -23.2872 19.228 -19.8711
LeftShoulder1  0.949938 0.114492 -21.6986
LeftArm  -0.0815455 -24.0454 -48.5731
LeftForeArm  141.364 -72.6 -144.801
LeftHand  -2.84125 -4.71113 32.1414
RightShoulder  2.16734 5.05066 18.9273
RightArm  -37.9908 -42.7755 55.6744
RightForeArm  -55.4434 28.6601 8.36015
RightHand  -3.42985 5.92409 -34.4537
LeftUpLeg  -43.5241 -17.8634 14.4027
LeftLeg  26.2798 -18.9168 -9.64555
LeftFoot  0.361783 2.62198 -25.4114
LeftToes  -5.54824e-011 -8.71001e-011 8.3852e-012
404
root  -8.95996 36.3032 10.3066 -170.664 -2.8225 172.945
RightUpLeg  9.10504 -26.2769 -18.9899
RightLeg  29.832 -17.8872 -11.0271
RightFoot  -14.9748 1.14781 37.9802
RightToes  2.32829e-010 0 -3.6325e-017
Spine  14.2099 5.33579 3.40822
Spine1  14.3301 7.24014 -4.89624
HEad  -16.1937 6.42148 -8.34742
LeftShoulder1  0.786174 0.657356 -21.1752
LeftArm  7.42587 -20.5454 -50.6804
LeftForeArm  139.546 -73.3052 -142.989
LeftHand  -2.657 -4.80389 29.9147
RightShoulder  1.97666 5.181 16.0384
RightArm  -47.933 -43.7366 44.4648
RightForeArm  -41.8288 21.2247 5.98869
RightHand  -3.30352 5.68603 -33.9309
LeftUpLeg  -44.7894 -24.1556 8.33554
LeftLeg  20.9073 -18.8356 -7.48206
LeftFoot  5.68468 3.31881 -22.1665
LeftToes  -5.54824e-011 -8.71001e-011 8.3852e-012
405
root  -8.82368 36.1826 9.98863 -169.024 -11.1563 169.293
RightUpLeg  9.30678 -16.5834 -15.8488
RightLeg  31.8632 -21.1163 -13.7887
RightFoot  -15.9275 1.24582 33.3016
RightToes  2.32829e-010 0 -3.6325e-017
Spine  14.8088 5.36715 9.93114
Spine1  15.9274 12.5226 -17.7436
HEad  -6.53722 -1.72044 1.70142
LeftShoulder1  0.331561 2.24681 -19.5655
LeftArm  7.75136 -13.4031 -47.027
LeftForeArm  141.655 -72.5724 -144.883
LeftHand  -2.53041 -5.06979 27.8759
RightShoulder  1.15942 3.50341 8.97828
RightArm  -55.0011 -40.708 30.6218
RightForeArm  -28.8344 19.7885 4.38665
RightHand  -3.31004 6.33646 -32.2366
LeftUpLeg  -45.3384 -29.9411 4.40907
LeftLeg  18.6488 -17.12 -6.01143
LeftFoot  7.91288 3.19952 -18.9547
LeftToes  -5.54824e-011 -8.71001e-011 8.3852e-012
406
root  -8.89364 35.8786 9.94921 -168.804 -12.8025 166.77
RightUpLeg  8.77731 -7.64494 -15.5505
RightLeg  34.9732 -19.3806 -14.2121
RightFoot  -19.0977 1.86352 28.7879
RightToes  2.32829e-010 0 -3.6325e-017
Spine  16.3891 4.49326 14.0713
Spine1  16.302 16.1328 -28.4321
HEad  4.79508 -2.97551 4.92652
LeftShoulder1  -0.244964 4.4849 -18.0296
LeftArm  1.7853 -1.56517 -41.6494
LeftForeArm  146 -69.9487 -150.161
LeftHand  -2.53291 -5.13764 27.7299
RightShoulder  0.349265 0.948319 -0.716802
RightArm  -54.6791 -25.8425 19.7897
RightForeArm  -18.1509 26.9593 6.80333
RightHand  -3.65399 7.39571 -32.5781
LeftUpLeg  -45.1974 -30.6126 0.944796
LeftLeg  19.6579 -17.4848 -6.50171
LeftFoot  7.6411 3.12805 -18.8504
LeftToes  -5.54824e-011 -8.71001e-011 8.3852e-012
407
root  -8.94216 35.6346 9.97873 -169.096 -9.7567 165.198
RightUpLeg  7.69273 -2.44846 -18.1191
RightLeg  36.1872 -15.3951 -12.0343
RightFoot  -22.1327 2.51008 27.6112
RightToes  2.32829e-010 0 -3.6325e-017
Spine  18.4973 3.53791 16.6359
Spine1  15.7532 18.7873 -37.0827
HEad  12.6936 0.619742 2.93359
LeftShoulder1  -0.496589 5.50156 -18.1998
LeftArm  -5.26309 11.2784 -39.1789
LeftForeArm  148.525 -66.5019 -155.068
LeftHand  -2.4981 -4.73357 28.3993
RightShoulder  0.013724 -1.62657 -8.70927
RightArm  -45.7915 -3.13236 12.7139
RightForeArm  -11.5566 39.7276 10.0463
RightHand  -3.93076 7.77796 -33.9837
LeftUpLeg  -44.6661 -26.2046 -2.58818
LeftLeg  21.594 -18.8698 -7.72881
LeftFoot  6.7029 3.17154 -20.0529
LeftToes  -5.54824e-011 -8.71001e-011 8.3852e-012
408
root  -8.72954 35.4835 9.86014 -168.427 -7.0729 163.937
RightUpLeg  6.30944 -1.17498 -20.4428
RightLeg  36.0732 -13.1441 -10.3381
RightFoot  -24.0953 3.08748 28.5464
RightToes  2.32829e-010 0 -3.6325e-017
Spine  20.6355 3.63065 18.0279
Spine1  15.5931 21.6296 -43.0482
HEad  13.4158 2.90589 2.8549
LeftShoulder1  -0.277672 4.56885 -19.5977
LeftArm  -7.84837 17.8518 -40.9431
LeftForeArm  150.394 -64.4453 -157.404
LeftHand  -2.47279 -4.65808 28.3299
RightShoulder  0.0466352 -5.07372 -12.7229
RightArm  -45.2187 15.867 4.1357
RightForeArm  2.17718 54.4388 15.8552
RightHand  -3.21 6.72018 -30.2156
LeftUpLeg  -45.3706 -22.6494 -4.50151
LeftLeg  23.1008 -18.8539 -8.29276
LeftFoot  5.82953 3.03994 -20.1829
LeftToes  -5.54824e-011 -8.71001e-011 8.3852e-012
409
root  -8.27316 35.3181 9.58413 -166.904 -8.56858 162.988
RightUpLeg  6.03431 -2.70503 -19.9682
RightLeg  36.3676 -14.3003 -11.3011
RightFoot  -25.0658 3.41825 29.2395
RightToes  2.32829e-010 0 -3.6325e-017
Spine  22.227 4.6171 17.7089
Spine1  16.1288 23.6128 -44.4329
HEad  9.86074 0.570111 6.60883
LeftShoulder1  0.0987536 3.14103 -20.7885
LeftArm  -3.21036 17.7758 -43.9511
LeftForeArm  153.479 -64.5514 -157.606
LeftHand  -2.50719 -5.22753 27.242
RightShoulder  0.209993 -9.85166 -13.5596
RightArm  -51.2501 28.6296 -1.09351
RightForeArm  16.1649 67.2889 26.8509
RightHand  -2.33467 5.40959 -25.1188
LeftUpLeg  -47.2373 -23.8199 -4.24641
LeftLeg  24.4604 -18.2767 -8.55947
LeftFoot  4.96748 2.79459 -19.55
LeftToes  -5.54824e-011 -8.71001e-011 8.3852e-012
